<svg xmlns="http://www.w3.org/2000/svg" xmlns:xlink="http://www.w3.org/1999/xlink" width="6000" zoomAndPan="magnify" viewBox="0 0 4500 2999.999989" height="4000" preserveAspectRatio="xMidYMid meet" version="1.0"><path fill="#00bcea" d="M 3375.960938 2352.882812 L 3670.191406 2632.691406 C 3673.8125 2636.144531 3677.304688 2639.726562 3680.660156 2643.441406 C 3684.015625 2647.152344 3687.230469 2650.984375 3690.300781 2654.9375 C 3693.371094 2658.886719 3696.292969 2662.949219 3699.058594 2667.117188 C 3701.828125 2671.285156 3704.441406 2675.550781 3706.890625 2679.914062 C 3709.34375 2684.277344 3711.628906 2688.722656 3713.75 2693.257812 C 3715.875 2697.789062 3717.824219 2702.394531 3719.601562 2707.074219 C 3721.382812 2711.75 3722.984375 2716.488281 3724.410156 2721.285156 C 3725.835938 2726.082031 3727.082031 2730.925781 3728.148438 2735.8125 C 3729.214844 2740.703125 3730.101562 2745.625 3730.800781 2750.582031 C 3731.5 2755.535156 3732.015625 2760.511719 3732.347656 2765.503906 C 3732.679688 2770.5 3732.824219 2775.496094 3732.78125 2780.5 C 3732.742188 2785.507812 3732.515625 2790.5 3732.101562 2795.488281 C 3731.6875 2800.476562 3731.09375 2805.441406 3730.3125 2810.386719 C 3729.527344 2815.328125 3728.566406 2820.234375 3727.417969 2825.105469 C 3726.273438 2829.980469 3724.945312 2834.800781 3723.441406 2839.574219 C 3721.9375 2844.347656 3720.253906 2849.058594 3718.398438 2853.703125 C 3716.546875 2858.351562 3714.519531 2862.925781 3712.324219 2867.421875 C 3710.128906 2871.917969 3707.769531 2876.328125 3705.246094 2880.652344 C 3702.722656 2884.972656 3700.042969 2889.195312 3697.207031 2893.316406 C 3694.371094 2897.441406 3691.382812 2901.453125 3688.246094 2905.351562 C 3685.113281 2909.253906 3681.835938 2913.03125 3678.417969 2916.691406 C 3675.003906 2920.347656 3671.457031 2923.871094 3667.777344 2927.265625 C 3664.097656 2930.660156 3660.300781 2933.910156 3656.378906 2937.019531 C 3652.460938 2940.132812 3648.429688 2943.09375 3644.289062 2945.902344 C 3640.148438 2948.714844 3635.910156 2951.367188 3631.570312 2953.863281 C 3627.234375 2956.359375 3622.808594 2958.691406 3618.296875 2960.859375 C 3613.785156 2963.027344 3609.203125 2965.023438 3604.542969 2966.847656 C 3599.882812 2968.675781 3595.160156 2970.324219 3590.378906 2971.800781 C 3585.597656 2973.273438 3580.765625 2974.570312 3575.886719 2975.6875 C 3571.011719 2976.800781 3566.097656 2977.734375 3561.148438 2978.484375 C 3556.199219 2979.234375 3551.230469 2979.800781 3546.242188 2980.183594 C 3541.25 2980.5625 3536.253906 2980.757812 3531.25 2980.769531 L 3481.730469 2980.769531 C 3475.003906 2980.761719 3468.296875 2980.417969 3461.605469 2979.742188 C 3454.914062 2979.0625 3448.269531 2978.054688 3441.679688 2976.71875 C 3435.089844 2975.378906 3428.578125 2973.71875 3422.152344 2971.730469 C 3415.726562 2969.746094 3409.414062 2967.445312 3403.21875 2964.832031 C 3397.023438 2962.214844 3390.96875 2959.300781 3385.0625 2956.082031 C 3379.15625 2952.867188 3373.425781 2949.363281 3367.867188 2945.574219 C 3362.308594 2941.785156 3356.953125 2937.730469 3351.800781 2933.410156 C 3346.644531 2929.089844 3341.71875 2924.523438 3337.019531 2919.710938 L 3060.578125 2635.578125 L 2642.308594 2206.730469 L 1582.691406 1119.230469 L 1828.847656 883.171875 L 2968.269531 1965.867188 Z M 3375.960938 2352.882812 " fill-opacity="1" fill-rule="nonzero"/><path fill="#00bcea" d="M 1828.847656 883.171875 L 1582.691406 1119.230469 L 1246.632812 1442.308594 L 848.558594 990.867188 L 1594.710938 288.460938 L 2290.867188 438.941406 Z M 1828.847656 883.171875 " fill-opacity="1" fill-rule="nonzero"/><path fill="#00647d" d="M 1617.789062 2307.691406 L 1617.789062 2451.921875 C 1444.230469 2451.921875 1245.671875 2727.402344 1148.558594 2880.769531 C 1147.015625 2883.207031 1145.429688 2885.613281 1143.792969 2887.988281 C 1142.152344 2890.363281 1140.46875 2892.703125 1138.738281 2895.011719 C 1137.007812 2897.316406 1135.226562 2899.585938 1133.40625 2901.824219 C 1131.582031 2904.058594 1129.714844 2906.253906 1127.804688 2908.414062 C 1125.890625 2910.574219 1123.9375 2912.695312 1121.9375 2914.777344 C 1119.941406 2916.855469 1117.902344 2918.898438 1115.824219 2920.894531 C 1113.746094 2922.894531 1111.625 2924.851562 1109.46875 2926.765625 C 1107.308594 2928.675781 1105.113281 2930.546875 1102.878906 2932.371094 C 1100.644531 2934.195312 1098.375 2935.976562 1096.070312 2937.707031 C 1093.765625 2939.441406 1091.425781 2941.128906 1089.050781 2942.765625 C 1086.679688 2944.40625 1084.273438 2945.996094 1081.835938 2947.539062 C 1079.398438 2949.082031 1076.929688 2950.574219 1074.433594 2952.015625 C 1071.9375 2953.457031 1069.410156 2954.851562 1066.855469 2956.191406 C 1064.300781 2957.53125 1061.722656 2958.820312 1059.117188 2960.058594 C 1056.511719 2961.292969 1053.882812 2962.480469 1051.226562 2963.609375 C 1048.574219 2964.742188 1045.898438 2965.816406 1043.203125 2966.839844 C 1040.507812 2967.863281 1037.789062 2968.832031 1035.054688 2969.746094 C 1032.316406 2970.65625 1029.566406 2971.515625 1026.792969 2972.320312 C 1024.023438 2973.121094 1021.238281 2973.867188 1018.4375 2974.558594 C 1015.636719 2975.25 1012.824219 2975.882812 1010 2976.460938 C 1007.171875 2977.035156 1004.335938 2977.554688 1001.488281 2978.019531 C 998.640625 2978.480469 995.785156 2978.886719 992.921875 2979.234375 C 990.058594 2979.582031 987.191406 2979.871094 984.316406 2980.101562 C 981.441406 2980.332031 978.5625 2980.507812 975.679688 2980.625 C 972.796875 2980.738281 969.914062 2980.796875 967.03125 2980.796875 C 964.144531 2980.796875 961.261719 2980.738281 958.378906 2980.621094 C 955.5 2980.503906 952.621094 2980.328125 949.746094 2980.09375 C 946.871094 2979.863281 944 2979.574219 941.136719 2979.222656 C 938.273438 2978.875 935.417969 2978.46875 932.574219 2978.007812 C 929.726562 2977.542969 926.890625 2977.023438 924.0625 2976.445312 C 921.238281 2975.867188 918.425781 2975.230469 915.625 2974.539062 C 912.824219 2973.847656 910.039062 2973.101562 907.269531 2972.296875 C 904.5 2971.496094 901.746094 2970.636719 899.011719 2969.722656 C 896.273438 2968.808594 893.558594 2967.839844 890.863281 2966.8125 C 888.164062 2965.789062 885.492188 2964.710938 882.839844 2963.582031 C 880.183594 2962.449219 877.554688 2961.265625 874.949219 2960.027344 C 872.34375 2958.789062 869.765625 2957.5 867.210938 2956.15625 C 864.660156 2954.816406 862.132812 2953.421875 859.636719 2951.980469 C 857.140625 2950.535156 854.671875 2949.042969 852.234375 2947.5 C 849.800781 2945.957031 847.394531 2944.367188 845.019531 2942.726562 C 842.648438 2941.085938 840.308594 2939.398438 838.003906 2937.664062 C 835.699219 2935.929688 833.429688 2934.148438 831.199219 2932.324219 C 828.964844 2930.5 826.769531 2928.628906 824.613281 2926.714844 C 822.453125 2924.800781 820.335938 2922.84375 818.257812 2920.84375 C 816.179688 2918.84375 814.140625 2916.804688 812.144531 2914.722656 C 810.148438 2912.640625 808.195312 2910.519531 806.28125 2908.359375 C 804.371094 2906.199219 802.503906 2904 800.683594 2901.765625 C 798.859375 2899.53125 797.082031 2897.257812 795.351562 2894.953125 C 793.621094 2892.644531 791.9375 2890.300781 790.300781 2887.925781 C 788.664062 2885.550781 787.078125 2883.144531 785.539062 2880.707031 C 783.996094 2878.265625 782.507812 2875.796875 781.066406 2873.296875 C 779.628906 2870.800781 778.238281 2868.273438 776.902344 2865.71875 C 775.5625 2863.160156 774.277344 2860.582031 773.042969 2857.972656 C 771.808594 2855.367188 770.628906 2852.734375 769.5 2850.082031 C 768.371094 2847.425781 767.296875 2844.75 766.277344 2842.054688 C 765.257812 2839.355469 764.292969 2836.636719 763.382812 2833.902344 C 762.472656 2831.164062 761.617188 2828.410156 760.816406 2825.636719 C 760.015625 2822.867188 759.273438 2820.082031 758.585938 2817.28125 C 757.898438 2814.476562 757.269531 2811.664062 756.695312 2808.835938 C 756.121094 2806.011719 755.605469 2803.171875 755.144531 2800.328125 C 754.683594 2797.480469 754.285156 2794.621094 753.9375 2791.757812 C 753.59375 2788.894531 753.308594 2786.027344 753.078125 2783.152344 C 752.851562 2780.277344 752.679688 2777.398438 752.566406 2774.515625 C 752.453125 2771.632812 752.398438 2768.75 752.402344 2765.867188 L 752.402344 2749.039062 C 752.398438 2744.988281 752.511719 2740.941406 752.738281 2736.898438 C 752.964844 2732.855469 753.304688 2728.824219 753.757812 2724.796875 C 754.214844 2720.773438 754.785156 2716.765625 755.464844 2712.777344 C 756.148438 2708.785156 756.945312 2704.816406 757.851562 2700.867188 C 758.761719 2696.921875 759.78125 2693.003906 760.910156 2689.117188 C 762.042969 2685.226562 763.28125 2681.375 764.632812 2677.558594 C 765.980469 2673.738281 767.4375 2669.960938 769.003906 2666.226562 C 770.566406 2662.492188 772.234375 2658.804688 774.007812 2655.164062 C 775.78125 2651.523438 777.660156 2647.9375 779.636719 2644.402344 C 781.613281 2640.867188 783.6875 2637.394531 785.863281 2633.976562 C 788.039062 2630.5625 790.308594 2627.210938 792.671875 2623.921875 C 795.039062 2620.632812 797.496094 2617.417969 800.042969 2614.269531 C 802.589844 2611.121094 805.226562 2608.050781 807.949219 2605.050781 C 810.667969 2602.054688 813.476562 2599.136719 816.363281 2596.296875 C 819.25 2593.457031 822.21875 2590.703125 825.261719 2588.035156 C 828.304688 2585.363281 831.425781 2582.78125 834.617188 2580.289062 C 962.5 2479.808594 1198.558594 2294.230469 1233.171875 2259.617188 C 1237.066406 2254.46875 1240.742188 2249.175781 1244.203125 2243.730469 C 1247.664062 2238.285156 1250.898438 2232.707031 1253.90625 2227 C 1256.910156 2221.292969 1259.679688 2215.46875 1262.210938 2209.535156 C 1264.742188 2203.601562 1267.027344 2197.574219 1269.070312 2191.453125 C 1271.109375 2185.332031 1272.898438 2179.136719 1274.433594 2172.871094 C 1275.96875 2166.605469 1277.246094 2160.285156 1278.265625 2153.914062 C 1279.285156 2147.546875 1280.046875 2141.144531 1280.542969 2134.710938 C 1281.042969 2128.277344 1281.277344 2121.835938 1281.25 2115.382812 L 1425.480469 2115.382812 Z M 1617.789062 2307.691406 " fill-opacity="1" fill-rule="nonzero"/><path fill="#00647d" d="M 3637.019531 1634.617188 C 3636.6875 1650.824219 3636.023438 1667.023438 3635.03125 1683.203125 C 3634.035156 1699.386719 3632.707031 1715.542969 3631.050781 1731.671875 C 3629.390625 1747.800781 3627.402344 1763.886719 3625.085938 1779.933594 C 3622.765625 1795.980469 3620.121094 1811.972656 3617.144531 1827.910156 C 3614.171875 1843.851562 3610.871094 1859.71875 3607.246094 1875.523438 C 3603.617188 1891.324219 3599.671875 1907.046875 3595.398438 1922.6875 C 3591.128906 1938.328125 3586.539062 1953.875 3581.628906 1969.328125 C 3576.722656 1984.78125 3571.5 2000.125 3565.960938 2015.363281 C 3560.421875 2030.601562 3554.574219 2045.71875 3548.414062 2060.71875 C 3542.253906 2075.71875 3535.792969 2090.582031 3529.023438 2105.316406 C 3522.253906 2120.046875 3515.1875 2134.636719 3507.820312 2149.078125 C 3500.453125 2163.523438 3492.792969 2177.808594 3484.839844 2191.9375 C 3476.886719 2206.066406 3468.644531 2220.023438 3460.121094 2233.816406 C 3451.59375 2247.605469 3442.789062 2261.214844 3433.703125 2274.644531 C 3424.617188 2288.074219 3415.261719 2301.3125 3405.636719 2314.355469 C 3396.007812 2327.402344 3386.117188 2340.246094 3375.960938 2352.882812 L 2968.269531 1965.867188 C 3699.039062 1167.789062 2194.710938 96.152344 2194.710938 96.152344 L 2290.867188 0 C 2435.097656 48.078125 3637.019531 528.847656 3637.019531 1634.617188 Z M 3637.019531 1634.617188 " fill-opacity="1" fill-rule="nonzero"/><path fill="#00647d" d="M 3060.578125 2635.578125 L 3060.097656 2636.058594 C 3040.367188 2648.328125 3020.238281 2659.90625 2999.710938 2670.792969 C 2979.183594 2681.675781 2958.304688 2691.835938 2937.074219 2701.28125 C 2915.84375 2710.722656 2894.316406 2719.421875 2872.484375 2727.378906 C 2850.65625 2735.339844 2828.578125 2742.535156 2806.25 2748.96875 C 2783.925781 2755.402344 2761.402344 2761.058594 2738.6875 2765.9375 C 2715.972656 2770.820312 2693.113281 2774.910156 2670.113281 2778.214844 C 2647.117188 2781.515625 2624.03125 2784.023438 2600.859375 2785.734375 C 2577.6875 2787.441406 2554.484375 2788.351562 2531.25 2788.460938 C 2132.691406 2788.460938 1762.019531 2500 1617.789062 2307.691406 L 1425.480469 2115.382812 L 1617.789062 1971.152344 C 1617.789062 1971.152344 2115.382812 2435.578125 2642.308594 2206.730469 Z M 3060.578125 2635.578125 " fill-opacity="1" fill-rule="nonzero"/><path fill="#007a98" d="M 3608.171875 2857.644531 L 1949.519531 1241.730469 C 1947.410156 1239.667969 1945.347656 1237.554688 1943.335938 1235.394531 C 1941.324219 1233.234375 1939.363281 1231.03125 1937.449219 1228.78125 C 1935.539062 1226.53125 1933.683594 1224.238281 1931.878906 1221.902344 C 1930.074219 1219.566406 1928.324219 1217.191406 1926.628906 1214.773438 C 1924.933594 1212.359375 1923.296875 1209.902344 1921.714844 1207.410156 C 1920.132812 1204.917969 1918.609375 1202.390625 1917.144531 1199.828125 C 1915.679688 1197.265625 1914.277344 1194.667969 1912.929688 1192.042969 C 1911.585938 1189.414062 1910.304688 1186.757812 1909.082031 1184.070312 C 1907.859375 1181.382812 1906.699219 1178.667969 1905.605469 1175.929688 C 1904.507812 1173.1875 1903.476562 1170.425781 1902.507812 1167.636719 C 1901.539062 1164.847656 1900.632812 1162.039062 1899.792969 1159.207031 C 1898.957031 1156.378906 1898.183594 1153.53125 1897.476562 1150.664062 C 1896.769531 1147.800781 1896.125 1144.917969 1895.550781 1142.023438 C 1894.976562 1139.128906 1894.472656 1136.222656 1894.03125 1133.300781 C 1893.589844 1130.382812 1893.21875 1127.457031 1892.914062 1124.519531 C 1892.609375 1121.582031 1892.375 1118.640625 1892.203125 1115.695312 C 1892.035156 1112.75 1891.933594 1109.800781 1891.902344 1106.847656 C 1891.871094 1103.894531 1891.90625 1100.945312 1892.011719 1097.996094 C 1892.113281 1095.046875 1892.285156 1092.101562 1892.527344 1089.15625 C 1892.765625 1086.214844 1893.074219 1083.28125 1893.449219 1080.351562 C 1893.824219 1077.425781 1894.269531 1074.507812 1894.777344 1071.601562 C 1895.289062 1068.695312 1895.867188 1065.800781 1896.511719 1062.917969 C 1897.15625 1060.039062 1897.863281 1057.175781 1898.640625 1054.328125 C 1899.417969 1051.476562 1900.261719 1048.648438 1901.167969 1045.839844 C 1902.074219 1043.03125 1903.046875 1040.246094 1904.082031 1037.480469 C 1905.117188 1034.71875 1906.21875 1031.980469 1907.378906 1029.265625 C 1908.542969 1026.554688 1909.765625 1023.867188 1911.054688 1021.210938 C 1912.339844 1018.554688 1913.6875 1015.929688 1915.09375 1013.335938 C 1916.503906 1010.742188 1917.96875 1008.179688 1919.496094 1005.652344 C 1921.023438 1003.128906 1922.605469 1000.636719 1924.25 998.183594 C 1925.890625 995.730469 1927.585938 993.316406 1929.339844 990.941406 C 1931.09375 988.566406 1932.898438 986.234375 1934.757812 983.941406 L 1828.992188 882.980469 L 1582.835938 1119.039062 L 2642.308594 2206.730469 L 3060.578125 2635.578125 L 3337.019531 2919.710938 C 3341.71875 2924.523438 3346.644531 2929.089844 3351.800781 2933.410156 C 3356.953125 2937.730469 3362.308594 2941.785156 3367.867188 2945.574219 C 3373.425781 2949.363281 3379.15625 2952.867188 3385.0625 2956.082031 C 3390.96875 2959.300781 3397.023438 2962.214844 3403.21875 2964.832031 C 3409.414062 2967.445312 3415.726562 2969.746094 3422.152344 2971.730469 C 3428.578125 2973.71875 3435.089844 2975.378906 3441.679688 2976.71875 C 3448.269531 2978.054688 3454.914062 2979.0625 3461.605469 2979.742188 C 3468.296875 2980.417969 3475.003906 2980.761719 3481.730469 2980.769531 L 3531.25 2980.769531 C 3537.863281 2980.777344 3544.464844 2980.460938 3551.046875 2979.820312 C 3557.628906 2979.179688 3564.164062 2978.214844 3570.65625 2976.929688 C 3577.144531 2975.644531 3583.550781 2974.042969 3589.882812 2972.125 C 3596.214844 2970.207031 3602.433594 2967.980469 3608.546875 2965.453125 C 3614.65625 2962.921875 3620.628906 2960.09375 3626.460938 2956.976562 C 3632.292969 2953.855469 3637.960938 2950.457031 3643.457031 2946.777344 C 3648.953125 2943.101562 3654.257812 2939.160156 3659.367188 2934.960938 C 3664.476562 2930.757812 3669.367188 2926.316406 3674.039062 2921.632812 C 3686.222656 2909.03125 3696.609375 2895.089844 3705.191406 2879.808594 C 3703.121094 2880.496094 3701.03125 2881.113281 3698.921875 2881.660156 C 3696.808594 2882.207031 3694.683594 2882.679688 3692.539062 2883.082031 C 3690.394531 2883.484375 3688.238281 2883.808594 3686.074219 2884.0625 C 3683.90625 2884.316406 3681.734375 2884.496094 3679.558594 2884.601562 C 3677.378906 2884.707031 3675.199219 2884.738281 3673.019531 2884.695312 C 3670.839844 2884.652344 3668.660156 2884.535156 3666.488281 2884.34375 C 3664.316406 2884.152344 3662.152344 2883.886719 3660 2883.546875 C 3657.84375 2883.207031 3655.703125 2882.792969 3653.578125 2882.308594 C 3651.453125 2881.824219 3649.34375 2881.265625 3647.257812 2880.636719 C 3645.167969 2880.007812 3643.105469 2879.304688 3641.066406 2878.535156 C 3639.023438 2877.765625 3637.011719 2876.925781 3635.03125 2876.019531 C 3633.046875 2875.109375 3631.097656 2874.136719 3629.183594 2873.09375 C 3627.265625 2872.054688 3625.386719 2870.949219 3623.546875 2869.78125 C 3621.707031 2868.609375 3619.90625 2867.378906 3618.148438 2866.085938 C 3616.390625 2864.796875 3614.683594 2863.445312 3613.015625 2862.035156 C 3611.351562 2860.628906 3609.738281 2859.164062 3608.171875 2857.644531 Z M 3608.171875 2857.644531 " fill-opacity="1" fill-rule="nonzero"/><path fill="#007a98" d="M 1353.75 1040.191406 C 1352.570312 1041.257812 1351.367188 1042.296875 1350.136719 1043.304688 C 1348.90625 1044.3125 1347.648438 1045.285156 1346.371094 1046.230469 C 1345.089844 1047.175781 1343.789062 1048.089844 1342.464844 1048.96875 C 1341.140625 1049.851562 1339.796875 1050.695312 1338.429688 1051.511719 C 1337.0625 1052.324219 1335.675781 1053.101562 1334.273438 1053.847656 C 1332.867188 1054.59375 1331.445312 1055.300781 1330.003906 1055.976562 C 1328.5625 1056.652344 1327.105469 1057.289062 1325.636719 1057.890625 C 1324.164062 1058.492188 1322.675781 1059.058594 1321.175781 1059.585938 C 1319.675781 1060.113281 1318.164062 1060.605469 1316.640625 1061.058594 C 1315.117188 1061.511719 1313.582031 1061.925781 1312.035156 1062.304688 C 1310.492188 1062.679688 1308.9375 1063.019531 1307.378906 1063.320312 C 1305.816406 1063.621094 1304.246094 1063.882812 1302.671875 1064.101562 C 1301.097656 1064.324219 1299.519531 1064.507812 1297.933594 1064.652344 C 1296.351562 1064.796875 1294.765625 1064.902344 1293.175781 1064.964844 C 1291.585938 1065.03125 1289.996094 1065.058594 1288.40625 1065.042969 C 1286.816406 1065.027344 1285.226562 1064.976562 1283.640625 1064.882812 C 1282.050781 1064.789062 1280.46875 1064.660156 1278.886719 1064.488281 C 1277.304688 1064.316406 1275.730469 1064.105469 1274.160156 1063.855469 C 1272.589844 1063.609375 1271.027344 1063.320312 1269.46875 1062.992188 C 1267.914062 1062.664062 1266.367188 1062.300781 1264.828125 1061.898438 C 1263.289062 1061.492188 1261.761719 1061.050781 1260.246094 1060.570312 C 1258.730469 1060.09375 1257.226562 1059.574219 1255.734375 1059.019531 C 1254.246094 1058.46875 1252.769531 1057.875 1251.308594 1057.25 C 1249.847656 1056.621094 1248.402344 1055.957031 1246.972656 1055.261719 C 1245.542969 1054.5625 1244.132812 1053.828125 1242.742188 1053.058594 C 1241.351562 1052.289062 1239.976562 1051.484375 1238.625 1050.648438 C 1237.273438 1049.8125 1235.941406 1048.941406 1234.632812 1048.039062 C 1233.324219 1047.136719 1232.039062 1046.199219 1230.777344 1045.234375 C 1229.515625 1044.265625 1228.277344 1043.269531 1227.0625 1042.242188 C 1225.851562 1041.210938 1224.664062 1040.15625 1223.503906 1039.066406 C 1222.34375 1037.980469 1221.210938 1036.863281 1220.105469 1035.722656 C 1219 1034.578125 1217.921875 1033.410156 1216.875 1032.210938 L 1030.671875 819.421875 L 848.558594 990.867188 L 1246.632812 1442.308594 L 1582.691406 1119.230469 L 1828.847656 883.171875 L 2290.867188 438.941406 L 2070.816406 391.394531 Z M 1353.75 1040.191406 " fill-opacity="1" fill-rule="nonzero"/><path fill="#004e62" d="M 1425.480469 2115.382812 L 1281.25 2115.382812 C 1280.757812 2134.042969 1278.488281 2152.480469 1274.445312 2170.699219 C 1270.402344 2188.921875 1264.65625 2206.585938 1257.210938 2223.703125 L 1389.902344 2343.125 L 815.335938 2917.835938 C 818.171875 2920.671875 821.082031 2923.429688 824.070312 2926.101562 C 827.058594 2928.777344 830.117188 2931.363281 833.25 2933.863281 C 836.382812 2936.367188 839.585938 2938.777344 842.851562 2941.101562 C 846.121094 2943.425781 849.453125 2945.652344 852.847656 2947.789062 C 856.238281 2949.925781 859.691406 2951.964844 863.199219 2953.90625 C 866.707031 2955.847656 870.265625 2957.691406 873.875 2959.433594 C 877.484375 2961.175781 881.144531 2962.816406 884.847656 2964.355469 C 888.550781 2965.894531 892.292969 2967.324219 896.074219 2968.652344 C 899.859375 2969.980469 903.675781 2971.203125 907.527344 2972.316406 C 911.378906 2973.429688 915.257812 2974.4375 919.167969 2975.332031 C 923.074219 2976.230469 927.003906 2977.015625 930.957031 2977.691406 C 934.910156 2978.367188 938.878906 2978.933594 942.863281 2979.386719 C 946.84375 2979.839844 950.839844 2980.179688 954.839844 2980.410156 C 958.84375 2980.640625 962.851562 2980.757812 966.859375 2980.765625 C 970.871094 2980.769531 974.875 2980.660156 978.878906 2980.441406 C 982.882812 2980.222656 986.878906 2979.890625 990.863281 2979.449219 C 994.847656 2979.003906 998.816406 2978.449219 1002.769531 2977.785156 C 1006.726562 2977.117188 1010.65625 2976.34375 1014.566406 2975.457031 C 1018.476562 2974.570312 1022.359375 2973.574219 1026.214844 2972.472656 C 1030.070312 2971.367188 1033.890625 2970.15625 1037.675781 2968.839844 C 1041.464844 2967.519531 1045.210938 2966.097656 1048.917969 2964.570312 C 1052.625 2963.042969 1056.285156 2961.410156 1059.902344 2959.675781 C 1063.515625 2957.945312 1067.078125 2956.109375 1070.59375 2954.175781 C 1074.105469 2952.242188 1077.5625 2950.214844 1080.960938 2948.085938 C 1084.359375 2945.960938 1087.695312 2943.738281 1090.96875 2941.425781 C 1094.246094 2939.113281 1097.453125 2936.707031 1100.589844 2934.214844 C 1103.730469 2931.71875 1106.796875 2929.140625 1109.792969 2926.476562 C 1112.789062 2923.808594 1115.707031 2921.0625 1118.546875 2918.230469 C 1121.390625 2915.402344 1124.148438 2912.496094 1126.828125 2909.511719 C 1129.503906 2906.527344 1132.097656 2903.472656 1134.605469 2900.34375 C 1137.109375 2897.214844 1139.527344 2894.015625 1141.855469 2890.75 C 1144.183594 2887.488281 1146.417969 2884.160156 1148.558594 2880.769531 C 1230.289062 2751.875 1383.414062 2537.402344 1533.171875 2472.117188 C 1546.433594 2465.882812 1560.191406 2461.066406 1574.441406 2457.664062 C 1588.695312 2454.265625 1603.140625 2452.351562 1617.789062 2451.921875 L 1617.789062 2307.691406 Z M 1425.480469 2115.382812 " fill-opacity="1" fill-rule="nonzero"/><path fill="#004e62" d="M 2642.308594 2206.730469 C 2590.078125 2229.367188 2535.988281 2245.953125 2480.046875 2256.492188 L 2642.597656 2419.039062 C 2644.246094 2420.683594 2645.835938 2422.382812 2647.363281 2424.140625 C 2648.886719 2425.902344 2650.347656 2427.710938 2651.742188 2429.578125 C 2653.140625 2431.441406 2654.464844 2433.355469 2655.71875 2435.316406 C 2656.976562 2437.277344 2658.160156 2439.28125 2659.269531 2441.328125 C 2660.378906 2443.375 2661.414062 2445.460938 2662.375 2447.582031 C 2663.332031 2449.707031 2664.210938 2451.859375 2665.015625 2454.046875 C 2665.816406 2456.234375 2666.539062 2458.445312 2667.179688 2460.683594 C 2667.824219 2462.921875 2668.382812 2465.183594 2668.859375 2467.460938 C 2669.335938 2469.742188 2669.730469 2472.035156 2670.042969 2474.34375 C 2670.351562 2476.652344 2670.578125 2478.96875 2670.722656 2481.292969 C 2670.863281 2483.617188 2670.921875 2485.941406 2670.894531 2488.269531 C 2670.867188 2490.601562 2670.757812 2492.925781 2670.5625 2495.246094 C 2670.367188 2497.566406 2670.085938 2499.875 2669.722656 2502.175781 C 2669.359375 2504.476562 2668.914062 2506.761719 2668.382812 2509.027344 C 2667.855469 2511.296875 2667.242188 2513.542969 2666.550781 2515.765625 C 2665.859375 2517.992188 2665.085938 2520.1875 2664.234375 2522.351562 C 2663.382812 2524.519531 2662.453125 2526.652344 2661.445312 2528.753906 C 2660.4375 2530.855469 2659.355469 2532.914062 2658.199219 2534.933594 C 2657.042969 2536.957031 2655.8125 2538.933594 2654.511719 2540.867188 C 2653.210938 2542.796875 2651.84375 2544.679688 2650.40625 2546.511719 C 2648.96875 2548.34375 2647.46875 2550.121094 2645.902344 2551.847656 C 2644.335938 2553.570312 2642.707031 2555.234375 2641.019531 2556.839844 C 2639.332031 2558.445312 2637.589844 2559.984375 2635.789062 2561.464844 C 2633.992188 2562.941406 2632.140625 2564.355469 2630.238281 2565.699219 C 2628.335938 2567.042969 2626.386719 2568.316406 2624.394531 2569.515625 C 2622.398438 2570.71875 2620.363281 2571.847656 2618.285156 2572.902344 C 2616.210938 2573.957031 2614.097656 2574.933594 2611.949219 2575.835938 C 2609.804688 2576.738281 2607.625 2577.558594 2605.417969 2578.300781 C 2603.210938 2579.046875 2600.980469 2579.707031 2598.726562 2580.289062 C 2596.46875 2580.867188 2594.195312 2581.367188 2591.90625 2581.78125 C 2589.613281 2582.199219 2587.308594 2582.53125 2584.992188 2582.777344 C 2582.679688 2583.027344 2580.355469 2583.191406 2578.027344 2583.269531 C 2363.316406 2589.808594 1983.414062 2513.125 1508.703125 2052.980469 L 1425.480469 2115.382812 L 1617.789062 2307.691406 C 1762.019531 2500 2132.691406 2788.460938 2531.25 2788.460938 C 2554.484375 2788.351562 2577.6875 2787.441406 2600.859375 2785.734375 C 2624.03125 2784.023438 2647.117188 2781.515625 2670.113281 2778.214844 C 2693.113281 2774.910156 2715.972656 2770.820312 2738.6875 2765.9375 C 2761.402344 2761.058594 2783.925781 2755.402344 2806.25 2748.96875 C 2828.578125 2742.535156 2850.65625 2735.339844 2872.484375 2727.378906 C 2894.316406 2719.421875 2915.84375 2710.722656 2937.074219 2701.28125 C 2958.304688 2691.835938 2979.183594 2681.675781 2999.710938 2670.792969 C 3020.238281 2659.90625 3040.367188 2648.328125 3060.097656 2636.058594 L 3060.578125 2635.578125 Z M 2642.308594 2206.730469 " fill-opacity="1" fill-rule="nonzero"/><path fill="#004e62" d="M 3458.75 2142.164062 C 3456.011719 2139.578125 3453.316406 2136.949219 3450.667969 2134.273438 C 3448.019531 2131.601562 3445.414062 2128.878906 3442.859375 2126.117188 C 3440.300781 2123.355469 3437.792969 2120.546875 3435.328125 2117.699219 C 3432.867188 2114.851562 3430.453125 2111.960938 3428.089844 2109.03125 C 3425.726562 2106.101562 3423.414062 2103.132812 3421.148438 2100.121094 C 3418.886719 2097.113281 3416.675781 2094.066406 3414.515625 2090.984375 C 3412.355469 2087.898438 3410.246094 2084.78125 3408.191406 2081.625 C 3406.136719 2078.46875 3404.136719 2075.28125 3402.191406 2072.058594 C 3400.246094 2068.835938 3398.355469 2065.578125 3396.519531 2062.292969 C 3394.683594 2059.003906 3392.902344 2055.6875 3391.179688 2052.339844 C 3389.457031 2048.992188 3387.792969 2045.617188 3386.183594 2042.214844 C 3384.574219 2038.808594 3383.023438 2035.378906 3381.53125 2031.921875 C 3380.039062 2028.464844 3378.605469 2024.984375 3377.230469 2021.480469 C 3375.855469 2017.976562 3374.539062 2014.449219 3373.285156 2010.898438 C 3372.03125 2007.347656 3370.835938 2003.777344 3369.703125 2000.1875 C 3368.570312 1996.597656 3367.496094 1992.988281 3366.484375 1989.363281 C 3365.472656 1985.734375 3364.523438 1982.09375 3363.636719 1978.433594 C 3362.746094 1974.777344 3361.921875 1971.101562 3361.160156 1967.414062 C 3360.394531 1963.730469 3359.695312 1960.03125 3359.054688 1956.320312 C 3358.417969 1952.609375 3357.84375 1948.890625 3357.332031 1945.160156 C 3356.820312 1941.429688 3356.371094 1937.691406 3355.984375 1933.945312 C 3355.601562 1930.199219 3355.277344 1926.449219 3355.019531 1922.695312 C 3354.761719 1918.9375 3354.566406 1915.179688 3354.4375 1911.414062 C 3354.308594 1907.652344 3354.242188 1903.886719 3354.238281 1900.125 C 3354.234375 1896.359375 3354.296875 1892.59375 3354.421875 1888.832031 C 3354.542969 1885.066406 3354.734375 1881.308594 3354.984375 1877.550781 C 3355.238281 1873.796875 3355.554688 1870.042969 3355.933594 1866.296875 C 3356.3125 1862.550781 3356.753906 1858.8125 3357.261719 1855.082031 C 3357.765625 1851.351562 3358.335938 1847.632812 3358.96875 1843.917969 C 3359.601562 1840.207031 3360.296875 1836.507812 3361.054688 1832.820312 C 3361.8125 1829.132812 3362.632812 1825.457031 3363.515625 1821.796875 C 3364.394531 1818.136719 3365.339844 1814.492188 3366.347656 1810.867188 C 3381.519531 1752.988281 3391.617188 1694.238281 3396.632812 1634.617188 C 3466.007812 837.066406 2685.097656 289.757812 2244.328125 46.539062 L 2194.710938 96.152344 C 2194.710938 96.152344 3499.132812 1025.625 3088.078125 1798.078125 C 3071.730469 1828.457031 3053.53125 1857.6875 3033.484375 1885.761719 C 3013.433594 1913.839844 2991.695312 1940.539062 2968.269531 1965.867188 L 3175.769531 2162.980469 L 3375.960938 2352.882812 C 3420.011719 2296.542969 3459.03125 2236.910156 3493.027344 2173.992188 Z M 3458.75 2142.164062 " fill-opacity="1" fill-rule="nonzero"/></svg>